<svg xmlns="http://www.w3.org/2000/svg" width="256" height="256" viewBox="0 0 100 100"><rect width="100" height="100" rx="50" fill="#e1920f"></rect><path fill="#fff" d="M35.22 50.43L35.13 51.04Q34.55 55.87 32.52 59.74Q30.50 63.61 27.51 65.53Q24.53 67.45 20.89 67.36L20.89 67.36Q15.39 67.24 12.46 63.64L12.46 63.64L9.61 78.93L4.31 78.93L11.93 35.04L16.73 35.02L16.15 38.56Q20.07 34.34 25.55 34.46L25.55 34.46Q30.12 34.58 32.67 37.83Q35.22 41.08 35.37 46.79L35.37 46.79Q35.40 48.67 35.22 50.43L35.22 50.43ZM29.92 50.43L29.92 50.43L30.06 47.96Q30.06 43.69 28.44 41.42Q26.81 39.15 23.74 39.03L23.74 39.03Q19.14 38.91 15.80 43.39L15.80 43.39L13.13 58.60Q14.92 62.82 19.55 62.94L19.55 62.94Q23.50 63.02 26.27 59.84Q29.04 56.67 29.92 50.43ZM58.83 66.74L59.51 63.61Q55.79 67.45 50.04 67.33L50.04 67.33Q45.50 67.21 43.32 64.08Q41.14 60.94 41.69 55.52L41.69 55.52L45.09 35.04L50.40 35.04L46.97 55.61Q46.82 56.90 46.91 58.13L46.91 58.13Q47.06 60.24 48.17 61.44Q49.28 62.64 51.27 62.73L51.27 62.73Q56.96 62.91 60.06 58.13L60.06 58.13L64.05 35.04L69.35 35.04L63.84 66.74L58.83 66.74ZM79.63 66.74L74.33 66.74L79.14 39.23L74.24 39.23L74.98 35.04L79.84 35.04L80.37 31.29Q81.13 26.52 84.06 23.82L84.06 23.82Q87.13 21.01 91.91 21.07L91.91 21.07Q93.40 21.07 95.69 21.57L95.69 21.57L95.04 25.99Q93.64 25.70 92.20 25.64L92.20 25.64Q89.45 25.64 87.73 27.35Q86.02 29.07 85.61 31.91L85.61 31.91L85.14 35.04L91.70 35.04L90.97 39.23L84.41 39.23L79.63 66.74Z"></path></svg>